Fungal-Grow 800 Thickness 1000.ufo
<glyph name="J" format="1">
  <advance width="604"/>
  <unicode hex="004A"/>
  <outline>
    <contour>
      <point x="201" y="1493" type="line"/>
      <point x="403" y="1493" type="line"/>
      <point x="403" y="104" type="line" smooth="yes"/>
      <point x="403" y="-256"/>
      <point x="273.667" y="-410"/>
      <point x="-29" y="-410" type="curve" smooth="yes"/>
      <point x="-106" y="-410" type="line"/>
      <point x="-106" y="-240" type="line"/>
      <point x="-43" y="-240" type="line" smooth="yes"/>
      <point x="135.667" y="-240"/>
      <point x="201" y="-154.667"/>
      <point x="201" y="104" type="curve" smooth="yes"/>
      <point x="201" y="1493" type="line"/>
    </contour>
    <component base="blob1" xScale="0" xyScale="-1.2886" yScale="0" yxScale="-1.2886" xOffset="-382" yOffset="-367"/>
    <component base="blob2" xScale="0" xyScale="-1" yScale="0" yxScale="-1" xOffset="-871" yOffset="-592"/>
    <component base="blob3" xScale="0" xyScale="-1" yScale="0" yxScale="-1" xOffset="-1365" yOffset="-661"/>
    <component base="blob4" xScale="0" xyScale="-0.8783" yScale="0" yxScale="-0.8783" xOffset="-1814" yOffset="-507"/>
    <component base="blob5" xScale="0" xyScale="-1" yScale="0" yxScale="-1" xOffset="-2204" yOffset="-694"/>
    <component base="blob6" xScale="0" xyScale="-1.1539" yScale="0" yxScale="-1.1539" xOffset="-2566" yOffset="-1032"/>
    <component base="blob7" xScale="0" xyScale="-0.9753" yScale="0" yxScale="-0.9753" xOffset="-3029" yOffset="-1237"/>
    <component base="blob8" xScale="0" xyScale="-0.7047" yScale="0" yxScale="-0.7047" xOffset="-3384" yOffset="-1216"/>
    <component base="blob9" xScale="0" xyScale="-0.4869" yScale="0" yxScale="-0.4869" xOffset="-3631" yOffset="-1077"/>
    <component base="blob2" xScale="0" xyScale="-1.397" yScale="0" yxScale="-1.397" xOffset="242" yOffset="-178"/>
    <component base="blob3" xScale="0" xyScale="-1" yScale="0" yxScale="-1" xOffset="805" yOffset="14"/>
    <component base="blob4" xScale="0" xyScale="-0.8783" yScale="0" yxScale="-0.8783" xOffset="1237" yOffset="-97"/>
    <component base="blob5" xScale="0" xyScale="-1" yScale="0" yxScale="-1" xOffset="1591" yOffset="-398"/>
    <component base="blob6" xScale="0" xyScale="-1.1539" yScale="0" yxScale="-1.1539" xOffset="2109" yOffset="-452"/>
    <component base="blob7" xScale="0" xyScale="-0.9753" yScale="0" yxScale="-0.9753" xOffset="2556" yOffset="-210"/>
    <component base="blob8" xScale="0" xyScale="-0.7047" yScale="0" yxScale="-0.7047" xOffset="2819" yOffset="91"/>
    <component base="blob9" xScale="0" xyScale="-0.4869" yScale="0" yxScale="-0.4869" xOffset="2709" yOffset="322"/>
    <contour>
      <point x="302" y="1520" type="move" name="above"/>
    </contour>
    <contour>
      <point x="302" y="-430" type="move" name="below"/>
    </contour>
    <contour>
      <point x="0" y="1520" type="move" name="half"/>
    </contour>
  </outline>
</glyph>
<glyph name="P" format="1">
  <advance width="1235"/>
  <unicode hex="0050"/>
  <outline>
    <contour>
      <point x="403" y="1327" type="line"/>
      <point x="403" y="766" type="line"/>
      <point x="657" y="766" type="line" smooth="yes"/>
      <point x="845" y="766"/>
      <point x="952" y="867"/>
      <point x="952" y="1047" type="curve" smooth="yes"/>
      <point x="952" y="1225.667"/>
      <point x="845" y="1327"/>
      <point x="657" y="1327" type="curve" smooth="yes"/>
      <point x="403" y="1327" type="line"/>
    </contour>
    <contour>
      <point x="201" y="1493" type="line"/>
      <point x="657" y="1493" type="line" smooth="yes"/>
      <point x="991.667" y="1493"/>
      <point x="1165" y="1339"/>
      <point x="1165" y="1047" type="curve" smooth="yes"/>
      <point x="1165" y="752.333"/>
      <point x="991.667" y="600"/>
      <point x="657" y="600" type="curve" smooth="yes"/>
      <point x="403" y="600" type="line"/>
      <point x="403" y="0" type="line"/>
      <point x="201" y="0" type="line"/>
      <point x="201" y="1493" type="line"/>
    </contour>
    <component base="blob1" xScale="0" xyScale="-1.2886" yScale="0" yxScale="-1.2886" xOffset="154" yOffset="815"/>
    <component base="blob2" xScale="0" xyScale="-1" yScale="0" yxScale="-1" xOffset="-394" yOffset="736"/>
    <component base="blob3" xScale="0" xyScale="-1" yScale="0" yxScale="-1" xOffset="-808" yOffset="550"/>
    <component base="blob4" xScale="0" xyScale="-0.8783" yScale="0" yxScale="-0.8783" xOffset="-1240" yOffset="454"/>
    <component base="blob5" xScale="0" xyScale="-1" yScale="0" yxScale="-1" xOffset="-1689" yOffset="604"/>
    <component base="blob6" xScale="0" xyScale="-1.1539" yScale="0" yxScale="-1.1539" xOffset="-2003" yOffset="1053"/>
    <component base="blob7" xScale="0" xyScale="-0.9753" yScale="0" yxScale="-0.9753" xOffset="-1834" yOffset="1515"/>
    <component base="blob8" xScale="0" xyScale="-0.7047" yScale="0" yxScale="-0.7047" xOffset="-1947" yOffset="1913"/>
    <component base="blob9" xScale="0" xyScale="-0.4869" yScale="0" yxScale="-0.4869" xOffset="-2227" yOffset="1970"/>
    <component base="blob2" xScale="0" xyScale="-1" yScale="0" yxScale="-1" xOffset="511" yOffset="1235"/>
    <component base="blob3" xScale="0" xyScale="-1" yScale="0" yxScale="-1" xOffset="962" yOffset="1141"/>
    <component base="blob4" xScale="0" xyScale="-0.8783" yScale="0" yxScale="-0.8783" xOffset="845" yOffset="752"/>
    <component base="blob5" xScale="0" xyScale="-1" yScale="0" yxScale="-1" xOffset="1077" yOffset="339"/>
    <component base="blob6" xScale="0" xyScale="-0.9409" yScale="0" yxScale="-0.9409" xOffset="1539" yOffset="261"/>
    <component base="blob7" xScale="0" xyScale="-0.8312" yScale="0" yxScale="-0.8312" xOffset="1883" yOffset="520"/>
    <component base="blob8" xScale="0" xyScale="-0.7047" yScale="0" yxScale="-0.7047" xOffset="2223" yOffset="419"/>
    <component base="blob9" xScale="0" xyScale="-0.4869" yScale="0" yxScale="-0.4869" xOffset="2282" yOffset="161"/>
    <contour>
      <point x="670" y="1520" type="move" name="above"/>
    </contour>
    <contour>
      <point x="670" y="0" type="move" name="below"/>
    </contour>
    <contour>
      <point x="0" y="1520" type="move" name="half"/>
    </contour>
  </outline>
</glyph>
<glyph name="a" format="1">
  <advance width="1255"/>
  <unicode hex="0061"/>
  <outline>
    <contour>
      <point x="702" y="563" type="line"/>
      <point x="404.667" y="563"/>
      <point x="307" y="502"/>
      <point x="307" y="338" type="curve" smooth="yes"/>
      <point x="307" y="207.333"/>
      <point x="399" y="125"/>
      <point x="547" y="125" type="curve" smooth="yes"/>
      <point x="751" y="125"/>
      <point x="885" y="282"/>
      <point x="885" y="522" type="curve" smooth="yes"/>
      <point x="885" y="563" type="line"/>
      <point x="702" y="563" type="line"/>
    </contour>
    <contour>
      <point x="1069" y="639" type="curve"/>
      <point x="1069" y="639" type="line"/>
      <point x="1069" y="0" type="line"/>
      <point x="885" y="0" type="line"/>
      <point x="885" y="170" type="line"/>
      <point x="801" y="34"/>
      <point x="679.333" y="-29"/>
      <point x="498" y="-29" type="curve" smooth="yes"/>
      <point x="268.667" y="-29"/>
      <point x="123" y="110"/>
      <point x="123" y="326" type="curve" smooth="yes"/>
      <point x="123" y="578"/>
      <point x="292.333" y="707"/>
      <point x="627" y="707" type="curve" smooth="yes"/>
      <point x="885" y="707" type="line"/>
      <point x="885" y="725" type="line" smooth="yes"/>
      <point x="885" y="894.333"/>
      <point x="768.333" y="991"/>
      <point x="567" y="991" type="curve" smooth="yes"/>
      <point x="439" y="991"/>
      <point x="317" y="960.333"/>
      <point x="205" y="899" type="curve"/>
      <point x="205" y="1069" type="line"/>
      <point x="339.667" y="1121"/>
      <point x="466" y="1147"/>
      <point x="586" y="1147" type="curve" smooth="yes"/>
      <point x="910" y="1147"/>
      <point x="1069" y="980.333"/>
    </contour>
    <component base="blob1" xScale="1.2886" yScale="1.2886" xOffset="912" yOffset="1199"/>
    <component base="blob2" xOffset="1434" yOffset="1291"/>
    <component base="blob3" xOffset="1893" yOffset="1355"/>
    <component base="blob4" xScale="0.6152" yScale="0.6152" xOffset="2126" yOffset="1614"/>
    <component base="blob5" xOffset="2256" yOffset="1940"/>
    <component base="blob6" xScale="1.1539" yScale="1.1539" xOffset="2681" yOffset="2187"/>
    <component base="blob7" xScale="0.5898" yScale="0.5898" xOffset="3028" yOffset="2420"/>
    <component base="blob8" xScale="0.7047" yScale="0.7047" xOffset="3157" yOffset="2544"/>
    <component base="blob9" xScale="0.4869" yScale="0.4869" xOffset="3286" yOffset="2615"/>
    <component base="blob1" xScale="1.2886" yScale="1.2886" xOffset="21" yOffset="640"/>
    <component base="blob2" xOffset="-323" yOffset="476"/>
    <component base="blob3" xScale="0.6783" yScale="0.6783" xOffset="-574" yOffset="566"/>
    <component base="blob4" xScale="0.6152" yScale="0.6152" xOffset="-807" yOffset="489"/>
    <component base="blob5" xScale="0.8138" yScale="0.8138" xOffset="-953" yOffset="346"/>
    <component base="blob6" xScale="1.1539" yScale="1.1539" xOffset="-998" yOffset="17"/>
    <component base="blob7" xScale="0.5898" yScale="0.5898" xOffset="-1134" yOffset="-224"/>
    <component base="blob8" xScale="0.7047" yScale="0.7047" xOffset="-1300" yOffset="-321"/>
    <component base="blob9" xScale="0.4869" yScale="0.4869" xOffset="-1498" yOffset="-241"/>
    <component base="blob2" xOffset="484" yOffset="701"/>
    <component base="blob2" xOffset="447" yOffset="1143"/>
    <component base="blob3" xOffset="204" yOffset="938"/>
    <component base="blob3" xScale="0.6783" yScale="0.6783" xOffset="853" yOffset="553"/>
    <component base="blob4" xScale="0.6152" yScale="0.6152" xOffset="738" yOffset="330"/>
    <component base="blob5" xScale="0.8138" yScale="0.8138" xOffset="641" yOffset="46"/>
    <component base="blob6" xScale="0.846" yScale="0.846" xOffset="381" yOffset="-155"/>
    <component base="blob7" xScale="0.5898" yScale="0.5898" xOffset="560" yOffset="-464"/>
    <component base="blob8" xScale="0.7047" yScale="0.7047" xOffset="824" yOffset="-519"/>
    <component base="blob9" xScale="0.4869" yScale="0.4869" xOffset="1023" yOffset="-292"/>
    <contour>
      <point x="586" y="1147" type="move" name="above"/>
    </contour>
    <contour>
      <point x="586" y="0" type="move" name="below"/>
    </contour>
    <contour>
      <point x="977" y="0" type="move" name="cedilla"/>
    </contour>
    <contour>
      <point x="0" y="1520" type="move" name="half"/>
    </contour>
    <contour>
      <point x="947" y="0" type="move" name="ogonek"/>
    </contour>
  </outline>
</glyph>
<glyph name="c" format="1">
  <advance width="1126"/>
  <unicode hex="0063"/>
  <outline>
    <contour>
      <point x="999" y="1077" type="curve"/>
      <point x="999" y="1077" type="line"/>
      <point x="999" y="905" type="line"/>
      <point x="895" y="962.333"/>
      <point x="790.667" y="991"/>
      <point x="684" y="991" type="curve" smooth="yes"/>
      <point x="445.333" y="991"/>
      <point x="307" y="832.333"/>
      <point x="307" y="559" type="curve" smooth="yes"/>
      <point x="307" y="285.667"/>
      <point x="445.333" y="127"/>
      <point x="684" y="127" type="curve" smooth="yes"/>
      <point x="790.667" y="127"/>
      <point x="895" y="155.667"/>
      <point x="999" y="213" type="curve"/>
      <point x="999" y="43" type="line"/>
      <point x="896.333" y="-5"/>
      <point x="788" y="-29"/>
      <point x="664" y="-29" type="curve" smooth="yes"/>
      <point x="326.667" y="-29"/>
      <point x="113" y="199"/>
      <point x="113" y="559" type="curve" smooth="yes"/>
      <point x="113" y="924.333"/>
      <point x="326.667" y="1147"/>
      <point x="676" y="1147" type="curve" smooth="yes"/>
      <point x="789.333" y="1147"/>
      <point x="897.667" y="1123.667"/>
    </contour>
    <component base="blob1" xScale="1.2886" yScale="1.2886" xOffset="412" yOffset="386"/>
    <component base="blob2" xOffset="665" yOffset="421"/>
    <component base="blob3" xOffset="829" yOffset="576"/>
    <component base="blob4" xScale="0.6152" yScale="0.6152" xOffset="1047" yOffset="624"/>
    <component base="blob5" xOffset="1182" yOffset="758"/>
    <component base="blob6" xScale="1.1539" yScale="1.1539" xOffset="1211" yOffset="1015"/>
    <component base="blob7" xScale="0.9753" yScale="0.9753" xOffset="1374" yOffset="1262"/>
    <component base="blob8" xScale="0.7047" yScale="0.7047" xOffset="1578" yOffset="1458"/>
    <component base="blob9" xScale="0.4869" yScale="0.4869" xOffset="1823" yOffset="1517"/>
    <contour>
      <point x="676" y="1147" type="move" name="above"/>
    </contour>
    <contour>
      <point x="676" y="0" type="move" name="below"/>
    </contour>
    <contour>
      <point x="678" y="0" type="move" name="cedilla"/>
    </contour>
    <contour>
      <point x="0" y="1520" type="move" name="half"/>
    </contour>
  </outline>
</glyph>
<glyph name="n" format="1">
  <advance width="1298"/>
  <unicode hex="006E"/>
  <outline>
    <contour>
      <point x="1124" y="676" type="curve"/>
      <point x="1124" y="676" type="line"/>
      <point x="1124" y="0" type="line"/>
      <point x="940" y="0" type="line"/>
      <point x="940" y="670" type="line" smooth="yes"/>
      <point x="940" y="882"/>
      <point x="857.333" y="987"/>
      <point x="692" y="987" type="curve" smooth="yes"/>
      <point x="493.333" y="987"/>
      <point x="371" y="851.667"/>
      <point x="371" y="633" type="curve" smooth="yes"/>
      <point x="371" y="0" type="line"/>
      <point x="186" y="0" type="line"/>
      <point x="186" y="1120" type="line"/>
      <point x="371" y="1120" type="line"/>
      <point x="371" y="946" type="line"/>
      <point x="459" y="1080.667"/>
      <point x="577" y="1147"/>
      <point x="733" y="1147" type="curve" smooth="yes"/>
      <point x="990.333" y="1147"/>
      <point x="1124" y="985.333"/>
    </contour>
    <component base="blob1" xScale="-1.2886" yScale="1.2886" xOffset="593" yOffset="1190"/>
    <component base="blob2" xScale="-1" xOffset="483" yOffset="1436"/>
    <component base="blob3" xScale="-1" xOffset="562" yOffset="1763"/>
    <component base="blob4" xScale="-0.6152" yScale="0.6152" xOffset="368" yOffset="1939"/>
    <component base="blob5" xScale="-1" xOffset="207" yOffset="2148"/>
    <component base="blob6" xScale="-0.8993" yScale="0.8993" xOffset="74" yOffset="2371"/>
    <component base="blob7" xScale="-1.0017" yScale="1.0017" xOffset="-208" yOffset="2584"/>
    <component base="blob8" xScale="-0.7047" yScale="0.7047" xOffset="-569" yOffset="2492"/>
    <component base="blob9" xScale="-0.4869" yScale="0.4869" xOffset="-818" yOffset="2321"/>
    <component base="blob3" xScale="-1" xOffset="820" yOffset="301"/>
    <component base="blob4" xScale="-0.985" yScale="0.985" xOffset="822" yOffset="-116"/>
    <component base="blob5" xScale="-0.8859" yScale="0.8859" xOffset="837" yOffset="-445"/>
    <component base="blob6" xScale="-0.8993" yScale="0.8993" xOffset="1183" yOffset="-712"/>
    <component base="blob7" xScale="-1.0017" yScale="1.0017" xOffset="1515" yOffset="-900"/>
    <component base="blob8" xScale="-0.7047" yScale="0.7047" xOffset="1874" yOffset="-741"/>
    <component base="blob9" xScale="-0.4869" yScale="0.4869" xOffset="2084" yOffset="-613"/>
    <contour>
      <point x="649" y="1147" type="move" name="above"/>
    </contour>
    <contour>
      <point x="678" y="0" type="move" name="below"/>
    </contour>
    <contour>
      <point x="278" y="0" type="move" name="cedilla"/>
    </contour>
    <contour>
      <point x="0" y="1520" type="move" name="half"/>
    </contour>
  </outline>
</glyph>
<glyph name="Idotaccent" format="1">
  <advance width="604"/>
  <unicode hex="0130"/>
  <outline>
    <component base="I"/>
    <component base="Dotaccent" xOffset="815" yOffset="373"/>
    <contour>
      <point x="303" y="0" type="move" name="below"/>
    </contour>
    <contour>
      <point x="303" y="0" type="move" name="cedilla"/>
    </contour>
  </outline>
</glyph>
<glyph name="omacron" format="1">
  <advance width="1253"/>
  <unicode hex="014D"/>
  <outline>
    <component base="macron" xOffset="115" yOffset="-1"/>
    <component base="o"/>
    <contour>
      <point x="627" y="1556" type="move" name="above-legacy"/>
    </contour>
    <contour>
      <point x="627" y="0" type="move" name="below"/>
    </contour>
    <contour>
      <point x="627" y="0" type="move" name="cedilla"/>
    </contour>
  </outline>
</glyph>
<glyph name="uni018F" format="1">
  <advance width="1612"/>
  <unicode hex="018F"/>
  <outline>
    <contour>
      <point x="117" y="780" type="qcurve"/>
      <point x="1284" y="780" type="line"/>
      <point x="1284" y="1048"/>
      <point x="1009" y="1354"/>
      <point x="735" y="1354" type="qcurve" smooth="yes"/>
      <point x="596" y="1354"/>
      <point x="344" y="1258"/>
      <point x="232" y="1163" type="qcurve"/>
      <point x="232" y="1378" type="line"/>
      <point x="343" y="1448"/>
      <point x="606" y="1520"/>
      <point x="752" y="1520" type="qcurve" smooth="yes"/>
      <point x="1102" y="1520"/>
      <point x="1497" y="1111"/>
      <point x="1497" y="745" type="qcurve" smooth="yes"/>
      <point x="1497" y="392"/>
      <point x="1121" y="-29"/>
      <point x="807" y="-29" type="qcurve" smooth="yes"/>
      <point x="478" y="-29"/>
      <point x="117" y="410"/>
    </contour>
    <contour>
      <point x="337" y="614" type="line"/>
      <point x="350" y="419"/>
      <point x="605" y="135"/>
      <point x="807" y="135" type="qcurve" smooth="yes"/>
      <point x="1009" y="135"/>
      <point x="1264" y="419"/>
      <point x="1277" y="614" type="qcurve"/>
    </contour>
    <contour>
      <point x="807" y="1520" type="move" name="above"/>
    </contour>
    <contour>
      <point x="807" y="0" type="move" name="below"/>
    </contour>
    <contour>
      <point x="807" y="0" type="move" name="cedilla"/>
    </contour>
    <contour>
      <point x="0" y="1520" type="move" name="half"/>
    </contour>
  </outline>
</glyph>
<glyph name="uni0278" format="1">
  <advance width="1351"/>
  <unicode hex="0278"/>
  <outline>
    <component base="phi1"/>
    <contour>
      <point x="678" y="1520" type="move" name="above"/>
    </contour>
    <contour>
      <point x="678" y="-430" type="move" name="below"/>
    </contour>
  </outline>
</glyph>
<glyph name="uni05D4" format="1">
  <advance width="1338"/>
  <unicode hex="05D4"/>
  <outline>
    <contour>
      <point x="392" y="684" type="line"/>
      <point x="392" y="0" type="line"/>
      <point x="207" y="0" type="line"/>
      <point x="207" y="608" type="line"/>
    </contour>
    <contour>
      <point x="1152" y="570" type="qcurve" smooth="yes"/>
      <point x="1152" y="0" type="line"/>
      <point x="967" y="0" type="line"/>
      <point x="967" y="608" type="line" smooth="yes"/>
      <point x="967" y="824"/>
      <point x="838" y="977"/>
      <point x="652" y="977" type="qcurve" smooth="yes"/>
      <point x="186" y="977" type="line"/>
      <point x="186" y="1120" type="line"/>
      <point x="650" y="1120" type="line" smooth="yes"/>
      <point x="927" y="1120"/>
      <point x="1152" y="870"/>
    </contour>
    <contour>
      <point x="683" y="0" type="move" name="rtl-below"/>
    </contour>
    <contour>
      <point x="665" y="560" type="move" name="rtl-inside"/>
    </contour>
  </outline>
</glyph>
<glyph name="uni05D9" format="1">
  <advance width="458"/>
  <unicode hex="05D9"/>
  <outline>
    <contour>
      <point x="322" y="1120" type="line"/>
      <point x="322" y="494" type="line"/>
      <point x="136" y="418" type="line"/>
      <point x="136" y="1120" type="line"/>
    </contour>
    <contour>
      <point x="229" y="0" type="move" name="rtl-below"/>
    </contour>
    <contour>
      <point x="6" y="795" type="move" name="rtl-inside"/>
    </contour>
  </outline>
</glyph>
<glyph name="uni062A" format="1">
  <advance width="1928"/>
  <unicode hex="062A"/>
  <outline>
    <component base="uni066E"/>
    <component base="arabic_2dots" xOffset="700" yOffset="650"/>
    <contour>
      <point x="900" y="850" type="move" name="rtl-above"/>
    </contour>
    <contour>
      <point x="900" y="-150" type="move" name="rtl-below"/>
    </contour>
  </outline>
</glyph>
<glyph name="uni0638" format="1">
  <advance width="1894"/>
  <unicode hex="0638"/>
  <outline>
    <component base="uni0637"/>
    <component base="arabic_dot" xOffset="975" yOffset="850"/>
    <contour>
      <point x="603" y="1650" type="move" name="rtl-above"/>
    </contour>
    <contour>
      <point x="603" y="-150" type="move" name="rtl-below"/>
    </contour>
  </outline>
</glyph>
<glyph name="uni063A" format="1">
  <advance width="1222"/>
  <unicode hex="063A"/>
  <outline>
    <component base="uni0639"/>
    <component base="arabic_dot" xOffset="375" yOffset="1200"/>
    <contour>
      <point x="450" y="1400" type="move" name="rtl-above"/>
    </contour>
    <contour>
      <point x="727" y="-600" type="move" name="rtl-below"/>
    </contour>
  </outline>
</glyph>
<glyph name="uni064B" format="1">
  <advance width="0"/>
  <unicode hex="064B"/>
  <outline>
    <contour>
      <point x="220" y="1450" type="line"/>
      <point x="220" y="1560" type="line"/>
      <point x="804" y="1690" type="line"/>
      <point x="804" y="1580" type="line"/>
    </contour>
    <contour>
      <point x="220" y="1210" type="line"/>
      <point x="220" y="1320" type="line"/>
      <point x="804" y="1450" type="line"/>
      <point x="804" y="1340" type="line"/>
    </contour>
    <contour>
      <point x="512" y="1200" type="move" name="_Ligature rtl-above"/>
    </contour>
    <contour>
      <point x="512" y="1200" type="move" name="_rtl-above"/>
    </contour>
    <contour>
      <point x="512" y="1200" type="move" name="_rtl-above-mark"/>
    </contour>
    <contour>
      <point x="512" y="1700" type="move" name="rtl-above-mark"/>
    </contour>
  </outline>
</glyph>
<glyph name="uni07EB" format="1">
  <advance width="0"/>
  <unicode hex="07EB"/>
  <outline>
    <contour>
      <point x="217" y="1526" type="line"/>
      <point x="815" y="1526" type="line"/>
      <point x="815" y="1378" type="line"/>
      <point x="217" y="1378" type="line"/>
    </contour>
    <contour>
      <point x="512" y="1147" type="move" name="_rtl-above"/>
    </contour>
  </outline>
</glyph>
<glyph name="uni1D0B" format="1">
  <advance width="1186"/>
  <unicode hex="1D0B"/>
  <outline>
    <component base="kgreenlandic"/>
    <contour>
      <point x="678" y="1147" type="move" name="above"/>
    </contour>
    <contour>
      <point x="678" y="0" type="move" name="below"/>
    </contour>
  </outline>
</glyph>
<glyph name="uni1D7D" format="1">
  <advance width="1366"/>
  <unicode hex="1D7D"/>
  <outline>
    <contour>
      <point x="371" y="168" type="qcurve"/>
      <point x="371" y="-426" type="line"/>
      <point x="186" y="-426" type="line"/>
      <point x="186" y="516" type="line"/>
      <point x="50" y="516" type="line"/>
      <point x="50" y="660" type="line"/>
      <point x="186" y="660" type="line"/>
      <point x="186" y="1120" type="line"/>
      <point x="371" y="1120" type="line"/>
      <point x="371" y="950" type="line"/>
      <point x="429" y="1050"/>
      <point x="606" y="1147"/>
      <point x="729" y="1147" type="qcurve" smooth="yes"/>
      <point x="932" y="1147"/>
      <point x="1060" y="985" type="qcurve" smooth="yes"/>
      <point x="1162" y="855"/>
      <point x="1183" y="660" type="qcurve"/>
      <point x="1316" y="660" type="line"/>
      <point x="1316" y="516" type="line"/>
      <point x="1187" y="516" type="line"/>
      <point x="1176" y="282"/>
      <point x="1060" y="133" type="qcurve" smooth="yes"/>
      <point x="932" y="-29"/>
      <point x="729" y="-29" type="qcurve" smooth="yes"/>
      <point x="606" y="-29"/>
      <point x="429" y="68"/>
    </contour>
    <contour>
      <point x="996" y="516" type="qcurve"/>
      <point x="372" y="516" type="line"/>
      <point x="380" y="342"/>
      <point x="454" y="240" type="qcurve" smooth="yes"/>
      <point x="538" y="124"/>
      <point x="684" y="124.5" type="qcurve" smooth="yes"/>
      <point x="830" y="124"/>
      <point x="914" y="240" type="qcurve" smooth="yes"/>
      <point x="988" y="342"/>
    </contour>
    <contour>
      <point x="377" y="660" type="qcurve"/>
      <point x="991" y="660" type="line"/>
      <point x="976" y="792"/>
      <point x="914" y="878" type="qcurve" smooth="yes"/>
      <point x="830" y="994"/>
      <point x="684" y="993.5" type="qcurve" smooth="yes"/>
      <point x="538" y="994"/>
      <point x="454" y="878" type="qcurve" smooth="yes"/>
      <point x="392" y="792"/>
    </contour>
    <contour>
      <point x="678" y="1147" type="move" name="above"/>
    </contour>
    <contour>
      <point x="678" y="-430" type="move" name="below"/>
    </contour>
    <contour>
      <point x="0" y="1520" type="move" name="half"/>
    </contour>
  </outline>
</glyph>
<glyph name="uni1EFB" format="1">
  <advance width="977"/>
  <unicode hex="1EFB"/>
  <outline>
    <contour>
      <point x="193" y="1556" type="line"/>
      <point x="377" y="1556" type="line"/>
      <point x="377" y="1409" type="line"/>
      <point x="601" y="1409" type="line"/>
      <point x="601" y="1556" type="line"/>
      <point x="785" y="1556" type="line"/>
      <point x="785" y="1409" type="line"/>
      <point x="946" y="1409" type="line"/>
      <point x="946" y="1284" type="line"/>
      <point x="785" y="1284" type="line"/>
      <point x="785" y="0" type="line"/>
      <point x="601" y="0" type="line"/>
      <point x="601" y="1284" type="line"/>
      <point x="377" y="1284" type="line"/>
      <point x="377" y="0" type="line"/>
      <point x="193" y="0" type="line"/>
      <point x="193" y="1284" type="line"/>
      <point x="32" y="1284" type="line"/>
      <point x="32" y="1409" type="line"/>
      <point x="193" y="1409" type="line"/>
    </contour>
    <contour>
      <point x="488" y="1520" type="move" name="above"/>
    </contour>
    <contour>
      <point x="488" y="0" type="move" name="below"/>
    </contour>
  </outline>
</glyph>
<glyph name="uniA746" format="1">
  <advance width="1393"/>
  <unicode hex="A746"/>
  <outline>
    <contour>
      <point x="201" y="685" type="line"/>
      <point x="201" y="1493" type="line"/>
      <point x="403" y="1493" type="line"/>
      <point x="403" y="819" type="line"/>
      <point x="655" y="896" type="line"/>
      <point x="655" y="170" type="line"/>
      <point x="1382" y="170" type="line"/>
      <point x="1382" y="0" type="line"/>
      <point x="453" y="0" type="line"/>
      <point x="453" y="762" type="line"/>
    </contour>
    <contour>
      <point x="298" y="1520" type="move" name="above"/>
    </contour>
    <contour>
      <point x="917" y="0" type="move" name="below"/>
    </contour>
    <contour>
      <point x="0" y="1520" type="move" name="half"/>
    </contour>
  </outline>
</glyph>
<glyph name="uniA780" format="1">
  <advance width="1141"/>
  <unicode hex="A780"/>
  <outline>
    <contour>
      <point x="940" y="0" type="line"/>
      <point x="738" y="0" type="line"/>
      <point x="738" y="1323" type="line"/>
      <point x="11" y="1323" type="line"/>
      <point x="11" y="1493" type="line"/>
      <point x="940" y="1493" type="line"/>
    </contour>
    <contour>
      <point x="475" y="1520" type="move" name="above"/>
    </contour>
    <contour>
      <point x="475" y="0" type="move" name="below"/>
    </contour>
    <contour>
      <point x="0" y="1520" type="move" name="half"/>
    </contour>
  </outline>
</glyph>
<glyph name="uniA781" format="1">
  <advance width="569"/>
  <unicode hex="A781"/>
  <outline>
    <contour>
      <point x="285" y="1147" type="move"/>
    </contour>
    <contour>
      <point x="193" y="1120" type="line"/>
      <point x="377" y="1120" type="line"/>
      <point x="377" y="-426" type="line"/>
      <point x="193" y="-426" type="line"/>
    </contour>
    <contour>
      <point x="285" y="1147" type="move" name="above"/>
    </contour>
    <contour>
      <point x="287" y="-430" type="move" name="below"/>
    </contour>
    <contour>
      <point x="0" y="1520" type="move" name="half"/>
    </contour>
  </outline>
</glyph>
<glyph name="uniA790" format="1">
  <advance width="1582"/>
  <unicode hex="A790"/>
  <outline>
    <contour>
      <point x="201" y="1493" type="line"/>
      <point x="473" y="1493" type="line"/>
      <point x="1135" y="244" type="line"/>
      <point x="1135" y="1493" type="line"/>
      <point x="1331" y="1493" type="line"/>
      <point x="1331" y="170" type="line"/>
      <point x="1501" y="170" type="line"/>
      <point x="1501" y="-321" type="line"/>
      <point x="1331" y="-321" type="line"/>
      <point x="1331" y="0" type="line"/>
      <point x="1059" y="0" type="line"/>
      <point x="397" y="1249" type="line"/>
      <point x="397" y="0" type="line"/>
      <point x="201" y="0" type="line"/>
    </contour>
    <contour>
      <point x="757" y="1520" type="move" name="above"/>
    </contour>
    <contour>
      <point x="757" y="0" type="move" name="below"/>
    </contour>
    <contour>
      <point x="0" y="1520" type="move" name="half"/>
    </contour>
  </outline>
</glyph>
<glyph name="uniFB76" format="1">
  <advance width="1322"/>
  <unicode hex="FB76"/>
  <outline>
    <component base="arabic_2dots" xOffset="650" yOffset="25"/>
    <component base="uni062D"/>
    <contour>
      <point x="650" y="1000" type="move" name="rtl-above"/>
    </contour>
    <contour>
      <point x="812" y="-600" type="move" name="rtl-below"/>
    </contour>
  </outline>
</glyph>
<glyph name="uniFB79" format="1">
  <advance width="1322"/>
  <unicode hex="FB79"/>
  <outline>
    <component base="uniFEA4"/>
    <component base="arabic_2dots" xOffset="400" yOffset="-200"/>
    <contour>
      <point x="600" y="1000" type="move" name="rtl-above"/>
    </contour>
    <contour>
      <point x="600" y="-250" type="move" name="rtl-below"/>
    </contour>
  </outline>
</glyph>
<glyph name="uniFB87" format="1">
  <advance width="1075"/>
  <unicode hex="FB87"/>
  <outline>
    <component base="arabic_3dots" xOffset="250" yOffset="1050"/>
    <component base="uniFEAA"/>
    <contour>
      <point x="450" y="1500" type="move" name="rtl-above"/>
    </contour>
    <contour>
      <point x="450" y="-150" type="move" name="rtl-below"/>
    </contour>
  </outline>
</glyph>
<glyph name="uniFB8B" format="1">
  <advance width="1130"/>
  <unicode hex="FB8B"/>
  <outline>
    <component base="uniFEAE"/>
    <component base="arabic_3dots" xOffset="500" yOffset="800"/>
    <contour>
      <point x="700" y="1250" type="move" name="rtl-above"/>
    </contour>
    <contour>
      <point x="500" y="-500" type="move" name="rtl-below"/>
    </contour>
  </outline>
</glyph>
<glyph name="uniFB98" format="1">
  <advance width="975"/>
  <unicode hex="FB98"/>
  <outline>
    <component base="uniFB94"/>
    <component base="arabic_2dots_a" xOffset="325" yOffset="-300"/>
    <contour>
      <point x="250" y="1700" type="move" name="rtl-above"/>
    </contour>
    <contour>
      <point x="400" y="-650" type="move" name="rtl-below"/>
    </contour>
  </outline>
</glyph>
<glyph name="uniFBAD" format="1">
  <advance width="944"/>
  <unicode hex="FBAD"/>
  <outline>
    <component base="uniFEEC"/>
    <contour>
      <point x="500" y="800" type="move" name="rtl-above"/>
    </contour>
    <contour>
      <point x="500" y="-600" type="move" name="rtl-below"/>
    </contour>
  </outline>
</glyph>
<glyph name="uniFE92" format="1">
  <advance width="618"/>
  <unicode hex="FE92"/>
  <outline>
    <component base="uni066E.medi"/>
    <component base="arabic_dot" xOffset="224" yOffset="-300"/>
    <contour>
      <point x="299" y="1000" type="move" name="rtl-above"/>
    </contour>
    <contour>
      <point x="299" y="-350" type="move" name="rtl-below"/>
    </contour>
  </outline>
</glyph>
<glyph name="uniFEB0" format="1">
  <advance width="1130"/>
  <unicode hex="FEB0"/>
  <outline>
    <component base="uniFEAE"/>
    <component base="arabic_dot" xOffset="625" yOffset="800"/>
    <contour>
      <point x="700" y="1000" type="move" name="rtl-above"/>
    </contour>
    <contour>
      <point x="500" y="-500" type="move" name="rtl-below"/>
    </contour>
  </outline>
</glyph>
<glyph name="uniFEBF" format="1">
  <advance width="1739"/>
  <unicode hex="FEBF"/>
  <outline>
    <component base="uniFEBB"/>
    <component base="arabic_dot" xOffset="475" yOffset="800"/>
    <contour>
      <point x="550" y="1000" type="move" name="rtl-above"/>
    </contour>
    <contour>
      <point x="550" y="-150" type="move" name="rtl-below"/>
    </contour>
  </outline>
</glyph>
<glyph name="uniFECF" format="1">
  <advance width="1071"/>
  <unicode hex="FECF"/>
  <outline>
    <component base="uniFECB"/>
    <component base="arabic_dot" xOffset="375" yOffset="1200"/>
    <contour>
      <point x="450" y="1400" type="move" name="rtl-above"/>
    </contour>
    <contour>
      <point x="600" y="-100" type="move" name="rtl-below"/>
    </contour>
  </outline>
</glyph>
<glyph name="uniFED2" format="1">
  <advance width="2120"/>
  <unicode hex="FED2"/>
  <outline>
    <component base="uni06A1.fina"/>
    <component base="arabic_dot" xOffset="1525" yOffset="950"/>
    <contour>
      <point x="700" y="1100" type="move" name="rtl-above"/>
    </contour>
    <contour>
      <point x="800" y="-200" type="move" name="rtl-below"/>
    </contour>
  </outline>
</glyph>
<glyph name="Dieresis" format="1">
  <advance width="0"/>
  <outline>
    <contour>
      <point x="-418" y="1497" type="line"/>
      <point x="-215" y="1497" type="line"/>
      <point x="-215" y="1294" type="line"/>
      <point x="-418" y="1294" type="line"/>
    </contour>
    <contour>
      <point x="-809" y="1497" type="line"/>
      <point x="-606" y="1497" type="line"/>
      <point x="-606" y="1294" type="line"/>
      <point x="-809" y="1294" type="line"/>
    </contour>
    <contour>
      <point x="-512" y="1147" type="move" name="_above"/>
    </contour>
    <contour>
      <point x="-512" y="1147" type="move" name="_above-mark"/>
    </contour>
    <contour>
      <point x="-512" y="1528" type="move" name="above-mark"/>
    </contour>
  </outline>
</glyph>
<glyph name="uni0268.dotless" format="1">
  <advance width="569"/>
  <outline>
    <contour>
      <point x="195" y="1120" type="line"/>
      <point x="379" y="1120" type="line"/>
      <point x="379" y="616" type="line"/>
      <point x="543" y="616" type="line"/>
      <point x="543" y="452" type="line"/>
      <point x="379" y="452" type="line"/>
      <point x="379" y="0" type="line"/>
      <point x="195" y="0" type="line"/>
      <point x="195" y="452" type="line"/>
      <point x="15" y="452" type="line"/>
      <point x="15" y="616" type="line"/>
      <point x="195" y="616" type="line"/>
    </contour>
    <contour>
      <point x="286" y="1147" type="move" name="above"/>
    </contour>
    <contour>
      <point x="286" y="0" type="move" name="below"/>
    </contour>
    <contour>
      <point x="286" y="0" type="move" name="cedilla"/>
    </contour>
    <contour>
      <point x="0" y="1520" type="move" name="half"/>
    </contour>
    <contour>
      <point x="324" y="0" type="move" name="ogonek"/>
    </contour>
  </outline>
</glyph>
<glyph name="uni0685.init" format="1">
  <advance width="1266"/>
  <outline>
    <component base="uniFEA3"/>
    <component base="arabic_3dots" xOffset="400" yOffset="950"/>
    <contour>
      <point x="600" y="1400" type="move" name="rtl-above"/>
    </contour>
    <contour>
      <point x="600" y="-100" type="move" name="rtl-below"/>
    </contour>
  </outline>
</glyph>
<glyph name="uni0695.fina" format="1">
  <advance width="1250"/>
  <outline>
    <component base="uniFEAE.fina.longstart"/>
    <component base="uni065A" xOffset="518" yOffset="-1762"/>
    <contour>
      <point x="700" y="750" type="move" name="rtl-above"/>
    </contour>
    <contour>
      <point x="500" y="-500" type="move" name="rtl-below"/>
    </contour>
  </outline>
</glyph>
<glyph name="uni069A.init" format="1">
  <advance width="1716"/>
  <outline>
    <component base="uniFEB3"/>
    <component base="arabic_dot" xOffset="775" yOffset="850"/>
    <component base="arabic_dot" xOffset="925" yOffset="-350"/>
    <contour>
      <point x="850" y="1050" type="move" name="rtl-above"/>
    </contour>
    <contour>
      <point x="1000" y="-400" type="move" name="rtl-below"/>
    </contour>
  </outline>
</glyph>
<glyph name="uni069F.medi" format="1">
  <advance width="1680"/>
  <outline>
    <component base="uniFEC4"/>
    <component base="arabic_3dots" xOffset="636" yOffset="850"/>
    <contour>
      <point x="339" y="1650" type="move" name="rtl-above"/>
    </contour>
    <contour>
      <point x="339" y="-150" type="move" name="rtl-below"/>
    </contour>
  </outline>
</glyph>
<glyph name="uni06B7.init" format="1">
  <advance width="624"/>
  <outline>
    <component base="uniFEDF"/>
    <component base="arabic_3dots" xOffset="127" yOffset="1700"/>
    <contour>
      <point x="339" y="2150" type="move" name="rtl-above"/>
    </contour>
    <contour>
      <point x="339" y="-100" type="move" name="rtl-below"/>
    </contour>
  </outline>
</glyph>
